<?xml version="1.0" encoding="UTF-8"?>
<svg id="uuid-db082f8c-1ea3-4794-895b-bd9693292cbf" data-name="Слой 1" xmlns="http://www.w3.org/2000/svg" viewBox="0 0 611.96 195.79">
  <defs>
    <style>
      .uuid-d3afdb07-befc-490e-815f-a9af5e61253d {
        fill: #fff;
      }

      .uuid-d3afdb07-befc-490e-815f-a9af5e61253d, .uuid-962885d8-7edb-4468-9731-5a93fede26f1 {
        stroke-width: 0px;
      }

      .uuid-962885d8-7edb-4468-9731-5a93fede26f1 {
        fill: #39876e;
      }
    </style>
  </defs>
  <rect class="uuid-962885d8-7edb-4468-9731-5a93fede26f1" width="611.96" height="195.67"/>
  <g>
    <g>
      <path class="uuid-d3afdb07-befc-490e-815f-a9af5e61253d" d="m271.91,44.42c1.63-.74,3.11-1.73,4.43-2.96,1.32-1.23,2.37-2.65,3.14-4.25.77-1.6,1.16-3.35,1.16-5.25,0-5.22-1.9-9.16-5.7-11.82-3.8-2.66-8.88-3.98-15.23-3.98h-24.13v62.32h24.71c4.69,0,8.74-.76,12.15-2.27,3.41-1.51,6.04-3.64,7.9-6.37,1.85-2.73,2.78-5.95,2.78-9.66s-1.03-7.08-3.09-9.84c-2.06-2.76-4.77-4.73-8.12-5.92Zm-21.55-17.41h7.12c2.85,0,5.04.62,6.57,1.87s2.29,3.01,2.29,5.3c0,1.57-.35,2.92-1.05,4.05-.7,1.13-1.69,1.99-2.98,2.58s-2.83.89-4.61.89h-7.34v-14.69h0Zm15,38.6c-1.6,1.31-4.01,1.96-7.21,1.96h-7.79v-15.71h8.28c3.03,0,5.3.69,6.83,2.07s2.29,3.32,2.29,5.81c.01,2.6-.8,4.56-2.4,5.87Z"/>
      <path class="uuid-d3afdb07-befc-490e-815f-a9af5e61253d" d="m321.92,66.07c-1.88.79-3.9,1.18-6.03,1.18-3.77,0-6.73-1.02-8.88-3.05-2.15-2.03-3.23-4.86-3.23-8.48,0-2.4.48-4.46,1.45-6.19.96-1.72,2.35-3.03,4.16-3.92s3.96-1.34,6.46-1.34c1.9,0,3.72.31,5.45.94,1.74.62,3.33,1.6,4.79,2.94l6.41-10.82c-2.34-1.87-4.98-3.27-7.92-4.21-2.94-.93-6.13-1.4-9.57-1.4-3.65,0-7.04.6-10.15,1.8-3.12,1.2-5.85,2.89-8.19,5.08-2.34,2.18-4.16,4.73-5.45,7.63-1.29,2.91-1.94,6.08-1.94,9.53,0,4.57,1.1,8.67,3.29,12.31,2.2,3.64,5.19,6.5,8.97,8.59s8.08,3.14,12.89,3.14c3.29,0,6.58-.55,9.86-1.65s6.2-2.6,8.75-4.5l-5.92-11.04c-1.59,1.53-3.32,2.68-5.2,3.46Z"/>
      <path class="uuid-d3afdb07-befc-490e-815f-a9af5e61253d" d="m348.96,76.8c3.77,2,8.15,3,13.13,3,2.26,0,4.62-.24,7.1-.73,2.48-.49,4.82-1.16,7.03-2,2.21-.85,4.01-1.8,5.41-2.87l-4.58-9.88c-2.2,1.46-4.5,2.53-6.9,3.23s-4.94,1.04-7.61,1.04c-2.4,0-4.51-.38-6.32-1.13-1.81-.76-3.24-1.8-4.27-3.14-1.04-1.33-1.57-2.89-1.6-4.67h34.1c.71-3.98.68-7.66-.09-11.06s-2.17-6.35-4.21-8.86-4.61-4.47-7.72-5.88c-3.12-1.41-6.66-2.11-10.64-2.11-3.62,0-6.94.58-9.95,1.76-3.01,1.17-5.62,2.83-7.83,4.96-2.21,2.14-3.93,4.67-5.17,7.61-1.23,2.94-1.85,6.16-1.85,9.66,0,4.84,1.05,9.06,3.16,12.67,2.1,3.59,5.04,6.4,8.81,8.4Zm5.41-32.47c1.85-1.36,4.19-2.05,7.01-2.05s5,.68,6.63,2.05c1.63,1.37,2.48,3.19,2.54,5.48h-19.32c.24-2.29,1.28-4.12,3.14-5.48Z"/>
      <path class="uuid-d3afdb07-befc-490e-815f-a9af5e61253d" d="m269.5,127.67c1.66-.86,3.14-1.97,4.45-3.34s2.34-2.89,3.09-4.58,1.13-3.46,1.13-5.3c0-3.41-.93-6.35-2.78-8.81-1.86-2.46-4.5-4.36-7.92-5.68-3.43-1.32-7.53-1.98-12.31-1.98s-8.99.68-13.09,2.05c-4.09,1.37-7.57,3.29-10.42,5.79l6.68,10.77c1.78-1.6,4-2.87,6.65-3.81,2.66-.93,5.37-1.4,8.12-1.4,2.31,0,4.24.24,5.76.71,1.53.48,2.67,1.17,3.43,2.07.75.91,1.13,2.04,1.13,3.41s-.39,2.54-1.16,3.54c-.77.99-1.88,1.74-3.32,2.25-1.44.5-3.17.76-5.19.76h-11.53v11.31h12.64c3.53,0,6.14.58,7.83,1.76,1.69,1.17,2.54,2.92,2.54,5.23,0,1.57-.5,2.94-1.49,4.1s-2.4,2.05-4.21,2.69-3.95.96-6.41.96c-3.21,0-6.29-.52-9.26-1.56s-5.5-2.48-7.61-4.32l-6.41,11.53c3.26,2.38,6.97,4.16,11.11,5.37,4.14,1.2,8.75,1.8,13.82,1.8s9.73-.86,13.6-2.58c3.88-1.72,6.88-4.1,9.02-7.12,2.14-3.03,3.22-6.5,3.25-10.42,0-3.77-.99-6.95-2.98-9.53-1.95-2.6-4.69-4.48-8.16-5.67Z"/>
      <path class="uuid-d3afdb07-befc-490e-815f-a9af5e61253d" d="m320.09,116.5c-3.25-1.37-7.01-2.05-11.29-2.05-3.24,0-6.53.44-9.88,1.31-3.35.88-6.5,2.23-9.44,4.07l3.74,10.01c1.84-1.39,3.92-2.44,6.23-3.14,2.32-.7,4.65-1.05,6.99-1.05s4.38.35,5.85,1.05c1.47.7,2.54,1.67,3.23,2.92.63,1.16.96,2.48,1,3.97-4.38-.29-8.27-.24-11.67.15-3.96.46-7.25,1.34-9.86,2.65s-4.56,2.97-5.85,4.99-1.94,4.33-1.94,6.94c0,3.06.7,5.68,2.09,7.86,1.39,2.18,3.29,3.86,5.7,5.03s5.12,1.76,8.15,1.76c3.26,0,6.17-.53,8.72-1.6s4.56-2.58,6.01-4.54v4.81h12.6v-27.87c0-4.45-.92-8.1-2.76-10.95-1.82-2.85-4.37-4.95-7.62-6.32Zm-4.8,32.25c-.84,1.2-1.97,2.11-3.38,2.74-1.41.62-2.99.93-4.74.93-2.02,0-3.63-.42-4.83-1.25-1.2-.83-1.8-2.03-1.8-3.6,0-1.22.43-2.24,1.29-3.07.86-.83,2.08-1.45,3.67-1.85,1.59-.4,3.52-.59,5.79-.58,1.62.01,3.38.15,5.27.41v1.84c-.01,1.75-.43,3.23-1.27,4.43Z"/>
      <polygon class="uuid-d3afdb07-befc-490e-815f-a9af5e61253d" points="387.2 116.23 371.8 116.23 360.83 132.57 356.62 132.57 356.62 116.23 342.02 116.23 342.02 161.64 356.62 161.64 356.62 144.14 360.95 144.14 371.35 161.64 388.63 161.64 372.87 137.11 387.2 116.23"/>
      <path class="uuid-d3afdb07-befc-490e-815f-a9af5e61253d" d="m416,147.35l-10.06-31.12h-15.85l17.63,45.58-.67,2.14c-.5,1.57-1.33,2.7-2.47,3.38-1.14.68-2.53,1.02-4.16,1.02-1.01,0-2.09-.15-3.25-.45-1.16-.3-2.23-.7-3.21-1.2l-3.07,12.2c1.66.92,3.49,1.59,5.48,2,1.99.42,4.02.62,6.1.62,2.73,0,5.33-.48,7.79-1.45,2.46-.96,4.71-2.57,6.75-4.81,2.03-2.24,3.82-5.29,5.36-9.15l18.83-49.9h-15.45l-9.75,31.14Z"/>
      <polygon class="uuid-d3afdb07-befc-490e-815f-a9af5e61253d" points="447.52 161.64 462.12 161.64 462.12 127.81 479.48 127.81 479.48 161.64 494.08 161.64 494.08 116.23 447.52 116.23 447.52 161.64"/>
      <polygon class="uuid-d3afdb07-befc-490e-815f-a9af5e61253d" points="551.42 116.23 536.01 116.23 525.04 132.57 520.84 132.57 520.84 116.23 506.23 116.23 506.23 161.64 520.84 161.64 520.84 144.14 525.16 144.14 535.57 161.64 552.84 161.64 537.08 137.11 551.42 116.23"/>
      <polygon class="uuid-d3afdb07-befc-490e-815f-a9af5e61253d" points="593.44 116.23 573.85 141.16 573.85 116.23 559.92 116.23 559.92 161.64 572.96 161.64 592.59 136.35 592.59 161.64 606.53 161.64 606.53 116.23 593.44 116.23"/>
    </g>
    <path class="uuid-d3afdb07-befc-490e-815f-a9af5e61253d" d="m163.92,195.67H31.75c-17.54,0-31.75-14.22-31.75-31.75V31.75C0,14.21,14.22,0,31.75,0h132.17c17.54,0,31.75,14.22,31.75,31.75v132.17c0,17.53-14.21,31.75-31.75,31.75Z"/>
    <g>
      <path class="uuid-962885d8-7edb-4468-9731-5a93fede26f1" d="m34.49,138.71V60.99h30.09c7.92,0,14.25,1.65,18.99,4.97,4.74,3.31,7.11,8.23,7.11,14.74,0,2.36-.48,4.55-1.44,6.55s-2.27,3.77-3.92,5.3c-1.65,1.54-3.49,2.77-5.52,3.69,4.18,1.49,7.56,3.94,10.13,7.39,2.57,3.44,3.86,7.53,3.86,12.27s-1.16,8.65-3.47,12.04c-2.31,3.41-5.6,6.05-9.85,7.94s-9.31,2.83-15.16,2.83h-30.82Zm18.43-45.86h9.16c2.22,0,4.13-.37,5.74-1.11,1.61-.75,2.85-1.81,3.72-3.23.87-1.4,1.31-3.09,1.31-5.05,0-2.85-.95-5.05-2.86-6.61-1.91-1.55-4.64-2.33-8.19-2.33h-8.88v18.33Zm0,32.25h9.72c4,0,7-.81,8.99-2.44,2-1.63,3-4.07,3-7.33s-.95-5.53-2.86-7.24c-1.9-1.72-4.75-2.59-8.52-2.59h-10.33v19.6Z"/>
      <path class="uuid-962885d8-7edb-4468-9731-5a93fede26f1" d="m131.54,140.37c-6.33,0-12.08-.75-17.24-2.25s-9.78-3.73-13.85-6.69l8-14.38c2.63,2.29,5.79,4.09,9.49,5.39,3.7,1.3,7.55,1.94,11.55,1.94,3.07,0,5.74-.39,8-1.19,2.25-.8,4-1.91,5.25-3.36,1.24-1.45,1.86-3.14,1.86-5.11,0-2.89-1.06-5.06-3.17-6.53-2.11-1.46-5.37-2.19-9.77-2.19h-15.77v-14.1h14.38c2.52,0,4.67-.31,6.47-.94,1.79-.63,3.17-1.57,4.14-2.81.96-1.24,1.44-2.71,1.44-4.41s-.47-3.12-1.42-4.24c-.94-1.13-2.37-2-4.27-2.59s-4.3-.89-7.19-.89c-3.44,0-6.82.58-10.13,1.75s-6.08,2.75-8.3,4.75l-8.33-13.43c3.56-3.11,7.89-5.52,12.99-7.22,5.11-1.71,10.55-2.55,16.32-2.55s11.08.82,15.35,2.47c4.27,1.64,7.57,4.01,9.88,7.08,2.32,3.07,3.47,6.73,3.47,10.99,0,2.29-.47,4.49-1.41,6.6-.94,2.11-2.23,4.01-3.86,5.72-1.63,1.7-3.48,3.09-5.55,4.16,4.33,1.48,7.74,3.83,10.22,7.05s3.72,7.18,3.72,11.88c-.04,4.89-1.39,9.21-4.05,12.99-2.67,3.78-6.41,6.73-11.24,8.88-4.86,2.16-10.51,3.23-16.98,3.23Z"/>
    </g>
  </g>
</svg>